# xmcd CD database file
#
# Track frame offsets:
#	150
#	10164
#	22714
#	31548
#	44200
#	57075
#	68623
#	83157
#	93425
#	110408
#	125280
#	136360
#	148783
#
# Disc length: 2164 seconds
#
# Revision: 0
# Processed by: cddbd v1.5.2PL0 Copyright (c) Steve Scherf et al.
# Submitted via: CDex 1.70beta2
#
DISCID=a108720d
DTITLE=Mike Siler - Bubbles In My Beer
DYEAR=2003
DGENRE=Country
TTITLE0=There Stands The Glass
TTITLE1=Undo The Right
TTITLE2=Driving Nails In My Coffin
TTITLE3=Step Aside
TTITLE4=Dance With Me (Just One More Time)
TTITLE5=Pride
TTITLE6=Go Away
TTITLE7=Bubbles In My Beer
TTITLE8=Eleven Roses
TTITLE9=Not That I Care
TTITLE10=Kiss And Make Up
TTITLE11=Three Days
TTITLE12=Today I Started Lovin' You Again
EXTD=YEAR: 2003
EXTT0=
EXTT1=
EXTT2=
EXTT3=
EXTT4=
EXTT5=
EXTT6=
EXTT7=
EXTT8=
EXTT9=
EXTT10=
EXTT11=
EXTT12=
PLAYORDER=
